<?xml version="1.0" encoding="UTF-8" standalone="no"?>
<!-- Created with Inkscape (http://www.inkscape.org/) -->

<svg
   xmlns:dc="http://purl.org/dc/elements/1.1/"
   xmlns:cc="http://creativecommons.org/ns#"
   xmlns:rdf="http://www.w3.org/1999/02/22-rdf-syntax-ns#"
   xmlns:svg="http://www.w3.org/2000/svg"
   xmlns="http://www.w3.org/2000/svg"
   xmlns:sodipodi="http://sodipodi.sourceforge.net/DTD/sodipodi-0.dtd"
   xmlns:inkscape="http://www.inkscape.org/namespaces/inkscape"
   width="96"
   height="96"
   viewBox="0 0 25.399999 25.400001"
   version="1.1"
   id="svg917"
   inkscape:export-filename="C:\Users\usrdotech\Documents\Proyectos\luger-cordova\res\icon\icon.png"
   inkscape:export-xdpi="96"
   inkscape:export-ydpi="96"
   sodipodi:docname="blue-blue-blue-white-inkwell.svg"
   inkscape:version="0.92.4 (5da689c313, 2019-01-14)">
  <defs
     id="defs911" />
  <sodipodi:namedview
     id="base"
     pagecolor="#ffffff"
     bordercolor="#666666"
     borderopacity="1.0"
     inkscape:pageopacity="0.0"
     inkscape:pageshadow="2"
     inkscape:zoom="4"
     inkscape:cx="96.543848"
     inkscape:cy="33.010758"
     inkscape:document-units="mm"
     inkscape:current-layer="layer1"
     showgrid="false"
     units="px"
     inkscape:window-width="1366"
     inkscape:window-height="705"
     inkscape:window-x="-8"
     inkscape:window-y="-8"
     inkscape:window-maximized="1"
     inkscape:snap-global="false"
     showguides="false" />
  <metadata
     id="metadata914">
    <rdf:RDF>
      <cc:Work
         rdf:about="">
        <dc:format>image/svg+xml</dc:format>
        <dc:type
           rdf:resource="http://purl.org/dc/dcmitype/StillImage" />
        <dc:title />
      </cc:Work>
    </rdf:RDF>
  </metadata>
  <g
     inkscape:label="Capa 1"
     inkscape:groupmode="layer"
     id="layer1"
     transform="translate(0,-271.59998)">
    <circle
       inkscape:export-ydpi="96"
       inkscape:export-xdpi="96"
       inkscape:export-filename="C:\Users\usrdotech\Documents\Proyectos\luger-cordova\res\icon\circle5437-9-710-3-1-0-24.png"
       r="11.796283"
       style="opacity:1;fill:#0e2337;fill-opacity:0.2745098;stroke:none;stroke-width:1.42419231;stroke-linecap:butt;stroke-linejoin:miter;stroke-miterlimit:4;stroke-dasharray:none;stroke-dashoffset:0;stroke-opacity:1"
       id="circle834"
       cx="12.794431"
       cy="284.85828" />
    <circle
       cy="284.3291"
       cx="12.662139"
       id="circle5437-9-710-3-1-0-24"
       style="opacity:1;fill:#3682cc;fill-opacity:1;stroke:none;stroke-width:1.42419231;stroke-linecap:butt;stroke-linejoin:miter;stroke-miterlimit:4;stroke-dasharray:none;stroke-dashoffset:0;stroke-opacity:1"
       r="11.796283"
       inkscape:export-filename="C:\Users\usrdotech\Documents\Proyectos\luger-cordova\res\icon\circle5437-9-710-3-1-0-24.png"
       inkscape:export-xdpi="96"
       inkscape:export-ydpi="96" />
    <g
       id="g874"
       transform="matrix(0.90177141,0,0,0.90177141,2.3280439,27.690654)">
      <path
         inkscape:connector-curvature="0"
         id="path852"
         d="m 15.788145,275.6327 -9.6e-4,0.005 a 12.574345,12.574345 0 0 0 -7.0061615,10.20471 l 1.3158255,0.74346 -0.006,0.0119 -1.3634388,0.29708 a 12.574345,12.574345 0 0 0 0.191447,2.19569 l -0.1056431,0.22518 H 8.4283526 c -0.343591,0 -0.6204661,0.27636 -0.6204661,0.61996 v 0.28718 a 1.8351298,1.6274268 0 0 0 0.2212052,0.56193 2.9561754,2.6215907 0 0 0 -1.3282243,1.81627 v 0.46274 c 0,0.55349 0.4454115,0.99891 0.9988963,0.99891 h 3.8418323 c 0.553486,0 0.999392,-0.44541 0.999392,-0.99891 v -0.46919 a 2.9561754,2.6215907 0 0 0 -1.327728,-1.80932 1.8351298,1.6274268 0 0 0 0.220213,-0.55797 v -0.29164 c 0,-0.34359 -0.276873,-0.61996 -0.620466,-0.61996 h -0.420093 l 0.379423,-0.22121 a 8.7208851,8.7208851 0 0 0 4.094284,-0.64725 l -0.0858,-0.0357 -0.669072,-1.08717 -9.59e-4,-0.009 1.661521,0.68643 a 8.7208851,8.7208851 0 0 0 1.920915,-1.47106 l -1.038078,-1.18786 -0.0035,-0.01 1.547941,0.63386 a 8.7208851,8.7208851 0 0 0 1.457179,-2.47641 8.7208851,8.7208851 0 0 0 -4.772284,0.6413 12.574345,12.574345 0 0 0 1.059405,-3.27741 l -2.204614,-0.56144 -0.01041,-0.008 2.356383,-0.51382 a 12.574345,12.574345 0 0 0 -0.29709,-4.13943 z m 3.868615,7.85825 a 8.7208851,8.7208851 0 0 1 0.0039,4.9e-4 l -0.002,-0.006 a 8.7208851,8.7208851 0 0 1 -0.002,0.005 z m -7.130651,-3.07505 0.143337,0.63534 c -0.834278,1.67376 -1.201392,3.20698 -1.559846,4.73806 l -0.32784,-0.068 -9.59e-4,-0.004 c 0.107709,-1.80392 0.988475,-3.64773 1.745339,-5.30148 z m 2.17932,3.79224 a 8.7208851,8.7208851 0 0 0 -1.512232,0.89523 l -0.855064,-0.37794 -0.0055,-0.009 z m 1.212166,0.73106 -0.167641,0.41712 c -1.135122,0.62753 -1.948431,1.35919 -2.755643,2.09252 l -0.160697,-0.16814 0.0014,-9.6e-4 c 0.771297,-0.98774 1.999537,-1.69393 3.082493,-2.34051 z"
         style="opacity:1;fill:#000000;fill-opacity:0.2745098;stroke:none;stroke-width:0.15361643;stroke-miterlimit:4;stroke-dasharray:none;stroke-opacity:1" />
      <g
         transform="matrix(0.95977267,0,0,0.95977267,0.35670317,12.237904)"
         id="g850">
        <path
           inkscape:connector-curvature="0"
           id="path903"
           d="m 15.548055,273.91071 a 13.101379,13.101379 0 0 0 -7.3000997,10.63203 l 1.371094,0.77463 -0.0061,0.0129 -1.42075,0.30937 a 13.101379,13.101379 0 0 0 0.19958,2.28767 l -1.269805,2.69983 0.0074,0.002 1.323931,-0.34603 0.878827,-1.86845 a 13.101379,13.101379 0 0 0 4.5133277,-4.29053 l -0.136898,0.03 -1.753901,-0.77472 -0.0061,-0.009 2.640754,-0.56657 a 13.101379,13.101379 0 0 0 1.12185,-3.45727 l -2.296764,-0.5849 -0.01074,-0.008 2.455129,-0.53511 a 13.101379,13.101379 0 0 0 -0.309912,-4.31333 z m -3.398038,4.97688 0.149714,0.66323 c -0.869245,1.74391 -1.251862,3.34181 -1.62534,4.93707 l -0.341756,-0.0709 -8.45e-4,-0.004 c 0.112234,-1.87968 1.029992,-3.80122 1.818622,-5.5244 z"
           style="opacity:1;fill:#ffffff;fill-opacity:1;stroke:none;stroke-width:0.16005501;stroke-miterlimit:4;stroke-dasharray:none;stroke-opacity:1" />
        <path
           inkscape:connector-curvature="0"
           id="path905"
           d="m 19.583746,282.09375 a 9.0864072,9.0864072 0 0 0 -8.352891,3.19932 l 0.477546,0.98225 -0.01022,0.005 -0.933138,-0.38224 a 9.0864072,9.0864072 0 0 0 -0.7862137,1.38486 l -1.787579,1.04222 0.0025,0.004 0.892231,0.32346 1.2372097,-0.72116 a 9.0864072,9.0864072 0 0 0 4.265914,-0.67433 l -0.08983,-0.0373 -0.696853,-1.13259 -10e-4,-0.009 1.731117,0.71549 a 9.0864072,9.0864072 0 0 0 2.001169,-1.533 l -1.081521,-1.23783 -0.0034,-0.0101 1.612687,0.66056 a 9.0864072,9.0864072 0 0 0 1.520533,-2.58554 z m -3.899029,1.5052 -0.175542,0.43767 c -1.182699,0.65383 -2.029965,1.41593 -2.87101,2.17999 l -0.167273,-0.17503 0.0011,-9.2e-4 c 0.803766,-1.02932 2.084029,-1.76555 3.212519,-2.43933 z"
           style="opacity:1;fill:#7cbfff;fill-opacity:1;stroke:none;stroke-width:0.11100551;stroke-miterlimit:4;stroke-dasharray:none;stroke-opacity:1" />
        <path
           style="opacity:1;vector-effect:none;fill:#cadef1;fill-opacity:1;stroke:none;stroke-width:0.46317035;stroke-linecap:butt;stroke-linejoin:miter;stroke-miterlimit:4;stroke-dasharray:0.92634066, 0.92634066;stroke-dashoffset:35.11181259;stroke-opacity:1"
           d="m 7.8805363,288.16188 c -0.357992,0 -0.646062,0.28808 -0.646062,0.64608 v 0.29917 a 1.9120463,1.6956378 0 0 0 0.230256,0.58521 3.0800788,2.7314705 0 0 0 -1.383893,1.89281 v 0.48202 c 0,0.57669 0.464346,1.0407 1.041029,1.0407 h 4.0027677 c 0.576684,0 1.041031,-0.464 1.041031,-1.0407 v -0.48908 a 3.0800788,2.7314705 0 0 0 -1.383222,-1.88508 1.9120463,1.6956378 0 0 0 0.229248,-0.58153 v -0.30353 c 0,-0.35799 -0.28807,-0.64608 -0.646064,-0.64608 z"
           id="path907"
           inkscape:connector-curvature="0" />
      </g>
    </g>
    <circle
       cy="284.85828"
       cx="42.030888"
       id="circle833"
       style="opacity:1;fill:#0e2337;fill-opacity:0.2745098;stroke:none;stroke-width:1.42419231;stroke-linecap:butt;stroke-linejoin:miter;stroke-miterlimit:4;stroke-dasharray:none;stroke-dashoffset:0;stroke-opacity:1"
       r="11.796283"
       inkscape:export-filename="C:\Users\usrdotech\Documents\Proyectos\luger-cordova\res\icon\circle5437-9-710-3-1-0-24.png"
       inkscape:export-xdpi="96"
       inkscape:export-ydpi="96" />
    <circle
       inkscape:export-ydpi="96"
       inkscape:export-xdpi="96"
       inkscape:export-filename="C:\Users\usrdotech\Documents\Proyectos\luger-cordova\res\icon\circle5437-9-710-3-1-0-24.png"
       r="11.796283"
       style="opacity:1;fill:#3682cc;fill-opacity:1;stroke:none;stroke-width:1.42419231;stroke-linecap:butt;stroke-linejoin:miter;stroke-miterlimit:4;stroke-dasharray:none;stroke-dashoffset:0;stroke-opacity:1"
       id="circle835"
       cx="41.898598"
       cy="284.3291" />
    <circle
       style="opacity:1;fill:#07111a;fill-opacity:0.2745098;stroke:none;stroke-width:0.22883296;stroke-miterlimit:4;stroke-dasharray:none;stroke-opacity:1"
       id="circle837"
       r="2.3306296"
       cy="289.02759"
       cx="37.104298" />
    <circle
       cx="36.972004"
       cy="288.63071"
       r="2.3306296"
       id="circle839"
       style="fill:#cadef1;fill-opacity:1;stroke:none;stroke-width:0.22883296;stroke-miterlimit:4;stroke-dasharray:none;stroke-opacity:1" />
    <path
       inkscape:connector-curvature="0"
       id="path841"
       d="m 47.867879,277.62235 -0.0026,0.006 a 11.510986,11.510986 0 0 0 -8.825818,7.10654 l 0.958598,0.99787 -0.0083,0.01 -1.273824,-0.0982 a 11.510986,11.510986 0 0 0 -0.40411,1.94097 l -0.135909,0.0108 5.17e-4,0.004 0.077,0.0791 -1.696537,1.89291 0.0057,0.004 1.201477,0.0429 1.210779,-1.35082 a 11.510986,11.510986 0 0 0 0.422713,-0.12093 l 0.615983,-0.0486 a 7.9833961,7.9833961 0 0 0 3.632853,1.09554 l -0.05684,-0.0636 -0.118856,-1.16221 0.0031,-0.007 1.096574,1.22731 a 7.9833961,7.9833961 0 0 0 2.168859,-0.44906 l -0.383439,-1.39217 0.0015,-0.009 1.023711,1.13843 a 7.9833961,7.9833961 0 0 0 2.187463,-1.46192 7.9833961,7.9833961 0 0 0 -5.870959,-1.25884 l -1.244886,-1.06402 -0.0031,-0.0103 2.365747,0.18913 a 11.510986,11.510986 0 0 0 1.81591,-2.6262 l -1.785421,-1.07176 -0.0067,-0.0103 2.200899,0.16898 a 11.510986,11.510986 0 0 0 0.827857,-3.7083 z m 1.700671,9.39168 a 7.9833961,7.9833961 0 0 1 0.0016,0.001 l 0.0016,-0.004 a 7.9833961,7.9833961 0 0 1 -0.0031,0.003 z m -5.818249,-6.05441 -0.04134,0.59582 c -1.1715,1.24842 -1.896525,2.49664 -2.613278,3.745 l -0.269751,-0.14625 v -0.004 c 0.568637,-1.55366 1.825948,-2.93961 2.92437,-4.19095 z m 2.159041,5.75882 -0.305408,0.27853 c -1.185526,0.0658 -2.146932,0.34495 -3.104203,0.62839 l -0.06511,-0.20206 10e-4,-10e-4 c 1.029063,-0.50758 2.323441,-0.60158 3.47369,-0.70383 z m -4.168221,0.50022 5.17e-4,0.0982 -0.0098,5.2e-4 -0.05736,-0.0636 a 11.510986,11.510986 0 0 0 0.06666,-0.0351 z"
       style="opacity:1;fill:#000000;fill-opacity:0.27272728;stroke:none;stroke-width:0.14062573;stroke-miterlimit:4;stroke-dasharray:none;stroke-opacity:1" />
    <path
       inkscape:connector-curvature="0"
       id="path843"
       d="m 47.600942,277.16487 a 11.510986,11.510986 0 0 0 -8.825962,7.10652 l 0.958523,0.9978 -0.0085,0.01 -1.273769,-0.098 a 11.510986,11.510986 0 0 0 -0.409127,1.9757 l -1.749764,1.9519 0.0057,0.004 1.201534,0.0429 1.210977,-1.35084 a 11.510986,11.510986 0 0 0 4.880836,-2.47243 l -0.122766,-0.01 -1.280675,-1.09445 -0.0028,-0.01 2.365427,0.18921 a 11.510986,11.510986 0 0 0 1.816315,-2.62668 l -1.785439,-1.07167 -0.0071,-0.01 2.20126,0.16905 a 11.510986,11.510986 0 0 0 0.827427,-3.70869 z m -4.115333,3.33139 -0.0413,0.59596 c -1.171499,1.24842 -1.896612,2.49673 -2.613365,3.74509 l -0.269757,-0.14591 2.73e-4,-0.004 c 0.568637,-1.55366 1.825772,-2.93932 2.924194,-4.19066 z"
       style="opacity:1;fill:#ffffff;fill-opacity:1;stroke:none;stroke-width:0.14062573;stroke-miterlimit:4;stroke-dasharray:none;stroke-opacity:1" />
    <path
       inkscape:connector-curvature="0"
       id="path845"
       d="m 49.305595,286.55227 a 7.9833963,7.9833963 0 0 0 -7.831234,-0.658 l 0.0028,0.9596 -0.01,2.7e-4 -0.592421,-0.65882 a 7.9833963,7.9833963 0 0 0 -1.150943,0.79563 l -1.812469,0.14213 6.81e-4,0.004 0.582496,0.59665 1.254371,-0.0983 a 7.9833963,7.9833963 0 0 0 3.633067,1.09539 l -0.05682,-0.0638 -0.118921,-1.16229 0.0028,-0.007 1.0966,1.2272 a 7.9833963,7.9833963 0 0 0 2.168888,-0.44889 l -0.383123,-1.39248 0.0012,-0.009 1.023867,1.13851 a 7.9833963,7.9833963 0 0 0 2.190478,-1.46528 z m -3.66003,-0.2978 -0.306031,0.27928 c -1.185526,0.0658 -2.14697,0.34524 -3.104241,0.62868 l -0.06551,-0.20235 0.0014,-0.001 c 1.029063,-0.50758 2.323255,-0.60128 3.473504,-0.70353 z"
       style="opacity:1;fill:#7cbfff;fill-opacity:1;stroke:none;stroke-width:0.09753039;stroke-miterlimit:4;stroke-dasharray:none;stroke-opacity:1" />
  </g>
</svg>
