<?xml version="1.0" encoding="UTF-8" standalone="no"?>
<!-- Created with Inkscape (http://www.inkscape.org/) -->

<svg
   xmlns:dc="http://purl.org/dc/elements/1.1/"
   xmlns:cc="http://creativecommons.org/ns#"
   xmlns:rdf="http://www.w3.org/1999/02/22-rdf-syntax-ns#"
   xmlns:svg="http://www.w3.org/2000/svg"
   xmlns="http://www.w3.org/2000/svg"
   xmlns:sodipodi="http://sodipodi.sourceforge.net/DTD/sodipodi-0.dtd"
   xmlns:inkscape="http://www.inkscape.org/namespaces/inkscape"
   width="100"
   height="100"
   viewBox="0 0 26.458332 26.458334"
   version="1.1"
   id="svg917"
   inkscape:export-filename="C:\Users\usrdotech\Documents\Proyectos\luger\src\assets\images\luger-logo.png"
   inkscape:export-xdpi="96"
   inkscape:export-ydpi="96"
   sodipodi:docname="dark.svg"
   inkscape:version="0.92.4 (5da689c313, 2019-01-14)">
  <defs
     id="defs911" />
  <sodipodi:namedview
     id="base"
     pagecolor="#ffffff"
     bordercolor="#666666"
     borderopacity="1.0"
     inkscape:pageopacity="0.0"
     inkscape:pageshadow="2"
     inkscape:zoom="2.8284271"
     inkscape:cx="-7.0115284"
     inkscape:cy="56.726811"
     inkscape:document-units="mm"
     inkscape:current-layer="layer1"
     showgrid="false"
     units="px"
     inkscape:window-width="1366"
     inkscape:window-height="705"
     inkscape:window-x="-8"
     inkscape:window-y="-8"
     inkscape:window-maximized="1"
     inkscape:snap-global="false"
     showguides="false" />
  <metadata
     id="metadata914">
    <rdf:RDF>
      <cc:Work
         rdf:about="">
        <dc:format>image/svg+xml</dc:format>
        <dc:type
           rdf:resource="http://purl.org/dc/dcmitype/StillImage" />
        <dc:title></dc:title>
      </cc:Work>
    </rdf:RDF>
  </metadata>
  <g
     inkscape:label="Capa 1"
     inkscape:groupmode="layer"
     id="layer1"
     transform="translate(0,-270.54165)">
    <circle
       style="fill:#252525;fill-opacity:1;stroke:none;stroke-width:0.40039983;stroke-miterlimit:4;stroke-dasharray:none;stroke-opacity:1"
       id="path815"
       r="4.0780125"
       cy="291.42026"
       cx="4.2450776" />
    <path
       style="opacity:1;fill:#252525;fill-opacity:1;stroke:none;stroke-width:0.24605946;stroke-miterlimit:4;stroke-dasharray:none;stroke-opacity:1"
       d="m 22.843033,271.35798 a 20.141315,20.141315 0 0 0 -15.4432048,12.4346 l 1.6771733,1.74592 -0.014705,0.0163 -2.2287708,-0.17154 A 20.141315,20.141315 0 0 0 6.117654,288.8402 l -3.0616444,3.41534 0.01,0.006 2.1023793,0.0748 2.1189072,-2.36359 a 20.141315,20.141315 0 0 0 8.5402279,-4.32611 l -0.214825,-0.0163 -2.240856,-1.91503 -0.0049,-0.0163 4.138896,0.33128 a 20.141315,20.141315 0 0 0 3.178096,-4.59605 l -3.124072,-1.87512 -0.01234,-0.0163 3.851651,0.29569 a 20.141315,20.141315 0 0 0 1.447786,-6.48929 z m -7.200791,5.82912 -0.07227,1.04274 c -2.049824,2.18442 -3.31859,4.36864 -4.57273,6.553 l -0.472003,-0.25518 4.74e-4,-0.006 c 0.994972,-2.71851 3.194641,-5.14309 5.116601,-7.33257 z"
       id="path1058-72-5"
       inkscape:connector-curvature="0" />
    <path
       style="opacity:1;fill:#252525;fill-opacity:1;stroke:none;stroke-width:0.17065354;stroke-miterlimit:4;stroke-dasharray:none;stroke-opacity:1"
       d="m 25.825741,287.78354 a 13.968925,13.968925 0 0 0 -13.702678,-1.15133 l 0.0049,1.67906 -0.01764,4.6e-4 -1.036585,-1.15272 a 13.968925,13.968925 0 0 0 -2.0138586,1.39213 l -3.171365,0.24864 0.0012,0.006 1.0192183,1.04401 2.1948329,-0.17185 a 13.968925,13.968925 0 0 0 6.3569494,1.91663 l -0.09943,-0.1117 -0.208094,-2.03374 0.0049,-0.0137 1.918774,2.14729 a 13.968925,13.968925 0 0 0 3.795008,-0.78545 l -0.670369,-2.43648 0.0021,-0.0163 1.791505,1.9921 a 13.968925,13.968925 0 0 0 3.832785,-2.56388 z m -6.404124,-0.5211 -0.535476,0.48869 c -2.074372,0.11505 -3.756656,0.60412 -5.431639,1.10007 l -0.114651,-0.35411 0.0025,-0.001 c 1.800599,-0.88814 4.065109,-1.05209 6.077758,-1.23099 z"
       id="path1058-72-1"
       inkscape:connector-curvature="0" />
    <circle
       style="opacity:0.51399997;fill:#0000ff;fill-opacity:1;stroke:none;stroke-width:0.40039983;stroke-miterlimit:4;stroke-dasharray:none;stroke-opacity:1"
       id="path815-9"
       r="4.0780125"
       cy="274.45578"
       cx="-27.127857" />
    <rect
       style="opacity:0.47600002;vector-effect:none;fill:#ff0000;fill-opacity:1;stroke:none;stroke-width:0.68356985;stroke-linecap:butt;stroke-linejoin:miter;stroke-miterlimit:4;stroke-dasharray:1.36713973, 1.36713973;stroke-dashoffset:35.11181259;stroke-opacity:1"
       id="rect849"
       width="8.9802561"
       height="5.7062049"
       x="-41.533684"
       y="280.58023"
       ry="1.5362812" />
    <ellipse
       cx="-37.043556"
       cy="284.44763"
       id="circle863"
       style="opacity:0.51399997;fill:#0000ff;fill-opacity:1;stroke:none;stroke-width:0.42994964;stroke-miterlimit:4;stroke-dasharray:none;stroke-opacity:1"
       rx="4.5457339"
       ry="4.218329" />
    <path
       style="opacity:0.47600002;vector-effect:none;fill:#ff0000;fill-opacity:1;stroke:none;stroke-width:0.68356985;stroke-linecap:butt;stroke-linejoin:miter;stroke-miterlimit:4;stroke-dasharray:1.36713971, 1.36713971;stroke-dashoffset:35.11181259;stroke-opacity:1"
       d="m -37.043538,269.75261 a 4.545734,3.5635184 0 0 0 -4.545976,3.56308 4.545734,3.5635184 0 0 0 0.05581,0.53899 v 1.82159 c 0,0.8511 0.685242,1.53634 1.53634,1.53634 h 5.907651 c 0.851099,0 1.53634,-0.68524 1.53634,-1.53634 v -1.83399 a 4.545734,3.5635184 0 0 0 0.05529,-0.52659 4.545734,3.5635184 0 0 0 -4.545458,-3.56308 z"
       id="rect866"
       inkscape:connector-curvature="0" />
    <path
       style="opacity:0.47600002;vector-effect:none;fill:#ff0000;fill-opacity:1;stroke:none;stroke-width:0.71205169;stroke-linecap:butt;stroke-linejoin:miter;stroke-miterlimit:4;stroke-dasharray:1.42410337, 1.42410337;stroke-dashoffset:35.11181259;stroke-opacity:1"
       d="m -26.192302,280.67194 a 4.7351379,4.1992072 0 0 0 -4.677252,3.57913 v 0.7407 c 0,0.88656 0.713793,1.60036 1.600353,1.60036 h 6.153801 c 0.886561,0 1.600353,-0.7138 1.600353,-1.60036 v -0.75146 a 4.7351379,4.1992072 0 0 0 -4.677255,-3.56837 z"
       id="rect871"
       inkscape:connector-curvature="0" />
    <path
       inkscape:connector-curvature="0"
       id="path878"
       d="m -26.192301,282.66327 a 2.9394712,2.606777 0 0 1 -2.903537,-2.22185 v -0.45981 c 0,-0.55036 0.443107,-0.99347 0.993464,-0.99347 h 3.820147 c 0.550358,0 0.993464,0.44311 0.993464,0.99347 v 0.46649 a 2.9394712,2.606777 0 0 1 -2.903538,2.21517 z"
       style="opacity:0.47600002;vector-effect:none;fill:#ff0000;fill-opacity:1;stroke:none;stroke-width:0.44202629;stroke-linecap:butt;stroke-linejoin:miter;stroke-miterlimit:4;stroke-dasharray:0.88405258, 0.88405258;stroke-dashoffset:35.11181259;stroke-opacity:1" />
    <path
       inkscape:connector-curvature="0"
       id="path887"
       d="m 0.11175949,243.70644 a 20.141315,20.141315 0 0 0 -15.44320449,12.4346 l 1.677173,1.74592 -0.0147,0.0163 -2.228771,-0.17154 a 20.141315,20.141315 0 0 0 -0.715872,3.45694 l -3.061644,3.41534 0.01,0.006 2.102379,0.0748 2.118908,-2.36359 a 20.141315,20.141315 0 0 0 8.5402275,-4.32611 l -0.214825,-0.0163 -2.240856,-1.91503 -0.0049,-0.0163 4.138896,0.33128 a 20.141315,20.141315 0 0 0 3.178096,-4.59605 l -3.124072,-1.87512 -0.01234,-0.0163 3.851651,0.29569 a 20.141315,20.141315 0 0 0 1.44778599,-6.48929 z m -7.20079099,5.82912 -0.07227,1.04274 c -2.049824,2.18442 -3.3185905,4.36864 -4.5727305,6.553 l -0.472003,-0.25518 4.74e-4,-0.006 c 0.994972,-2.71851 3.1946415,-5.14309 5.1166015,-7.33257 z"
       style="opacity:1;fill:#252525;fill-opacity:1;stroke:none;stroke-width:0.24605946;stroke-miterlimit:4;stroke-dasharray:none;stroke-opacity:1" />
    <path
       inkscape:connector-curvature="0"
       id="path889"
       d="m 2.8138345,260.132 a 13.968925,13.968925 0 0 0 -13.7026785,-1.15133 l 0.0049,1.67906 -0.01764,4.6e-4 -1.036585,-1.15272 a 13.968925,13.968925 0 0 0 -2.013858,1.39213 l -3.171365,0.24864 0.0012,0.006 1.019218,1.04401 2.194833,-0.17185 a 13.968925,13.968925 0 0 0 6.3569495,1.91663 l -0.09943,-0.1117 -0.208094,-2.03374 0.0049,-0.0137 1.918774,2.14729 a 13.968925,13.968925 0 0 0 3.795008,-0.78545 l -0.670369,-2.43648 0.0021,-0.0163 1.791505,1.9921 a 13.968925,13.968925 0 0 0 3.832785,-2.56388 z m -6.404124,-0.5211 -0.535476,0.48869 c -2.074372,0.11505 -3.756656,0.60412 -5.431639,1.10007 l -0.114651,-0.35411 0.0025,-10e-4 c 1.800599,-0.88814 4.065109,-1.05209 6.077758,-1.23099 z"
       style="opacity:1;fill:#252525;fill-opacity:1;stroke:none;stroke-width:0.17065354;stroke-miterlimit:4;stroke-dasharray:none;stroke-opacity:1" />
    <path
       style="opacity:1;vector-effect:none;fill:#252525;fill-opacity:1;stroke:none;stroke-width:0.71205169;stroke-linecap:butt;stroke-linejoin:miter;stroke-miterlimit:4;stroke-dasharray:1.42410335, 1.42410335;stroke-dashoffset:35.11181259;stroke-opacity:1"
       d="m -17.815502,261.15881 c -0.550357,0 -0.993221,0.44287 -0.993221,0.99323 v 0.45992 a 2.9394711,2.606777 0 0 0 0.353984,0.89968 4.7351378,4.1992071 0 0 0 -2.127519,2.9099 v 0.74104 c 0,0.88656 0.713859,1.5999 1.600419,1.5999 h 6.15363 c 0.88656,0 1.600419,-0.71334 1.600419,-1.5999 v -0.75189 a 4.7351378,4.1992071 0 0 0 -2.126485,-2.89801 2.9394711,2.606777 0 0 0 0.352433,-0.89401 v -0.46663 c 0,-0.55036 -0.442863,-0.99323 -0.993222,-0.99323 z"
       id="path880"
       inkscape:connector-curvature="0" />
    <path
       style="opacity:1;fill:#252525;fill-opacity:1;stroke:none;stroke-width:0.24605946;stroke-miterlimit:4;stroke-dasharray:none;stroke-opacity:1"
       d="m -22.338881,243.70644 a 20.141315,20.141315 0 0 0 -15.443204,12.4346 l 1.677173,1.74592 -0.0147,0.0163 -2.228771,-0.17154 a 20.141315,20.141315 0 0 0 -0.715872,3.45694 l -3.061644,3.41534 0.01,0.006 2.102379,0.0748 2.118908,-2.36359 a 20.141315,20.141315 0 0 0 8.540227,-4.32611 l -0.214825,-0.0163 -2.240856,-1.91503 -0.0049,-0.0163 4.138896,0.33128 a 20.141315,20.141315 0 0 0 3.178096,-4.59605 l -3.124072,-1.87512 -0.01234,-0.0163 3.851651,0.29569 a 20.141315,20.141315 0 0 0 1.447786,-6.48929 z m -7.200791,5.82912 -0.07227,1.04274 c -2.049824,2.18442 -3.31859,4.36864 -4.57273,6.553 l -0.472003,-0.25518 4.74e-4,-0.006 c 0.994972,-2.71851 3.194641,-5.14309 5.116601,-7.33257 z"
       id="path891"
       inkscape:connector-curvature="0" />
    <path
       style="opacity:1;fill:#252525;fill-opacity:1;stroke:none;stroke-width:0.17065354;stroke-miterlimit:4;stroke-dasharray:none;stroke-opacity:1"
       d="m -19.356173,260.132 a 13.968925,13.968925 0 0 0 -13.702678,-1.15133 l 0.0049,1.67906 -0.01764,4.6e-4 -1.036585,-1.15272 a 13.968925,13.968925 0 0 0 -2.013858,1.39213 l -3.171365,0.24864 0.0012,0.006 1.019218,1.04401 2.194833,-0.17185 a 13.968925,13.968925 0 0 0 6.356949,1.91663 l -0.09943,-0.1117 -0.208094,-2.03374 0.0049,-0.0137 1.918774,2.14729 a 13.968925,13.968925 0 0 0 3.795008,-0.78545 l -0.670369,-2.43648 0.0021,-0.0163 1.791505,1.9921 a 13.968925,13.968925 0 0 0 3.832785,-2.56388 z m -6.404124,-0.5211 -0.535476,0.48869 c -2.074372,0.11505 -3.756656,0.60412 -5.431639,1.10007 l -0.114651,-0.35411 0.0025,-10e-4 c 1.800599,-0.88814 4.065109,-1.05209 6.077758,-1.23099 z"
       id="path893"
       inkscape:connector-curvature="0" />
    <path
       inkscape:connector-curvature="0"
       id="path895"
       d="m -40.266142,261.15881 c -0.550357,0 -0.993221,0.44287 -0.993221,0.99323 v 0.45992 a 2.9394711,2.606777 0 0 0 0.353984,0.89968 4.7351378,4.1992071 0 0 0 -2.127519,2.9099 v 0.74104 c 0,0.88656 0.713859,1.5999 1.600419,1.5999 h 6.15363 c 0.88656,0 1.600419,-0.71334 1.600419,-1.5999 v -0.75189 a 4.7351378,4.1992071 0 0 0 -2.126485,-2.89801 2.9394711,2.606777 0 0 0 0.352433,-0.89401 v -0.46663 c 0,-0.55036 -0.442863,-0.99323 -0.993222,-0.99323 z"
       style="opacity:1;vector-effect:none;fill:#252525;fill-opacity:1;stroke:none;stroke-width:0.71205169;stroke-linecap:butt;stroke-linejoin:miter;stroke-miterlimit:4;stroke-dasharray:1.42410335, 1.42410335;stroke-dashoffset:35.11181259;stroke-opacity:1" />
    <path
       style="opacity:1;fill:#252525;fill-opacity:1;stroke:none;stroke-width:0.24605946;stroke-miterlimit:4;stroke-dasharray:none;stroke-opacity:1"
       d="m 25.649363,243.70644 a 20.141315,20.141315 0 0 0 -15.443204,12.4346 l 1.677173,1.74592 -0.0147,0.0163 -2.2287714,-0.17154 a 20.141315,20.141315 0 0 0 -0.715872,3.45694 l -3.061644,3.41534 0.01,0.006 2.102379,0.0748 2.1189084,-2.36359 a 20.141315,20.141315 0 0 0 8.540227,-4.32611 l -0.214825,-0.0163 -2.240856,-1.91503 -0.0049,-0.0163 4.138896,0.33128 a 20.141315,20.141315 0 0 0 3.178096,-4.59605 l -3.124072,-1.87512 -0.01234,-0.0163 3.851651,0.29569 a 20.141315,20.141315 0 0 0 1.447786,-6.48929 z m -7.200791,5.82912 -0.07227,1.04274 c -2.049824,2.18442 -3.31859,4.36864 -4.57273,6.553 l -0.472003,-0.25518 4.74e-4,-0.006 c 0.994972,-2.71851 3.194641,-5.14309 5.116601,-7.33257 z"
       id="path897"
       inkscape:connector-curvature="0" />
    <path
       style="opacity:1;fill:#252525;fill-opacity:1;stroke:none;stroke-width:0.17065354;stroke-miterlimit:4;stroke-dasharray:none;stroke-opacity:1"
       d="m 27.053139,257.41567 a 13.968925,13.968925 0 0 0 -13.64185,1.72884 l 0.354619,1.64119 -0.01716,0.004 -1.254002,-0.91146 a 13.968925,13.968925 0 0 0 -1.679619,1.78116 l -3.0499665,0.90393 0.00242,0.006 1.2143674,0.80875 2.1108631,-0.62537 a 13.968925,13.968925 0 0 0 6.61677,0.55012 l -0.12052,-0.0885 -0.627251,-1.94575 0.0019,-0.0144 2.324048,1.70039 a 13.968925,13.968925 0 0 0 3.548081,-1.55889 l -1.163291,-2.24334 -0.0013,-0.0164 2.167238,1.57513 a 13.968925,13.968925 0 0 0 3.214499,-3.30616 z m -6.372156,0.82461 -0.421908,0.58953 c -2.004879,0.54471 -3.54835,1.37355 -5.083246,2.20759 l -0.185912,-0.32245 0.0022,-0.002 c 1.576044,-1.2438 3.756701,-1.87595 5.68791,-2.47025 z"
       id="path899"
       inkscape:connector-curvature="0" />
    <path
       inkscape:connector-curvature="0"
       id="path901"
       d="m 7.7221016,261.15881 c -0.550357,0 -0.993221,0.44287 -0.993221,0.99323 v 0.45992 a 2.9394711,2.606777 0 0 0 0.353984,0.89968 4.7351378,4.1992071 0 0 0 -2.127519,2.9099 v 0.74104 c 0,0.88656 0.713859,1.5999 1.600419,1.5999 h 6.1536304 c 0.88656,0 1.600419,-0.71334 1.600419,-1.5999 v -0.75189 a 4.7351378,4.1992071 0 0 0 -2.126485,-2.89801 2.9394711,2.606777 0 0 0 0.352433,-0.89401 v -0.46663 c 0,-0.55036 -0.442863,-0.99323 -0.993222,-0.99323 z"
       style="opacity:1;vector-effect:none;fill:#252525;fill-opacity:1;stroke:none;stroke-width:0.71205169;stroke-linecap:butt;stroke-linejoin:miter;stroke-miterlimit:4;stroke-dasharray:1.42410335, 1.42410335;stroke-dashoffset:35.11181259;stroke-opacity:1" />
    <path
       inkscape:connector-curvature="0"
       id="path903"
       d="m 43.363513,239.24987 a 20.141315,20.141315 0 0 0 -11.222757,16.34508 l 2.107842,1.19086 -0.0094,0.0198 -2.184181,0.47561 a 20.141315,20.141315 0 0 0 0.306823,3.51693 l -1.952125,4.15059 0.0113,0.003 2.035335,-0.53198 1.351059,-2.87245 a 20.141315,20.141315 0 0 0 6.938532,-6.59602 l -0.210459,0.0461 -2.696346,-1.19101 -0.0094,-0.0142 4.059744,-0.87103 a 20.141315,20.141315 0 0 0 1.724669,-5.31502 l -3.530915,-0.89919 -0.0165,-0.0121 3.774375,-0.82264 a 20.141315,20.141315 0 0 0 -0.476371,-6.63175 z m -5.22395,7.65117 0.230163,1.01959 c -1.336328,2.68099 -1.924541,5.13753 -2.498704,7.59 l -0.525397,-0.10891 -0.0013,-0.006 c 0.172543,-2.88972 1.583452,-5.84378 2.795846,-8.4929 z"
       style="opacity:1;fill:#252525;fill-opacity:1;stroke:none;stroke-width:0.24605946;stroke-miterlimit:4;stroke-dasharray:none;stroke-opacity:1" />
    <path
       inkscape:connector-curvature="0"
       id="path905"
       d="m 49.567755,251.83 a 13.968925,13.968925 0 0 0 -12.841258,4.91844 l 0.734152,1.51006 -0.01572,0.008 -1.434554,-0.58765 a 13.968925,13.968925 0 0 0 -1.20868,2.12902 l -2.748125,1.60225 0.0038,0.005 1.371666,0.49729 1.902016,-1.10868 a 13.968925,13.968925 0 0 0 6.558172,-1.03666 l -0.138087,-0.0573 -1.071301,-1.74118 -0.0016,-0.0144 2.661319,1.09996 a 13.968925,13.968925 0 0 0 3.076485,-2.35675 l -1.66267,-1.90298 -0.0052,-0.0156 2.479253,1.01551 a 13.968925,13.968925 0 0 0 2.337581,-3.97485 z m -5.994146,2.314 -0.269868,0.67285 c -1.818214,1.00516 -3.120753,2.17677 -4.413727,3.35139 l -0.257156,-0.26909 0.0017,-0.002 c 1.235655,-1.58244 3.203859,-2.71427 4.938735,-3.75011 z"
       style="opacity:1;fill:#252525;fill-opacity:1;stroke:none;stroke-width:0.17065354;stroke-miterlimit:4;stroke-dasharray:none;stroke-opacity:1" />
    <path
       style="opacity:1;vector-effect:none;fill:#252525;fill-opacity:1;stroke:none;stroke-width:0.71205169;stroke-linecap:butt;stroke-linejoin:miter;stroke-miterlimit:4;stroke-dasharray:1.42410335, 1.42410335;stroke-dashoffset:35.11181259;stroke-opacity:1"
       d="m 31.575907,261.15881 c -0.550357,0 -0.993221,0.44287 -0.993221,0.99323 v 0.45992 a 2.9394711,2.606777 0 0 0 0.353984,0.89968 4.7351378,4.1992071 0 0 0 -2.127519,2.9099 v 0.74104 c 0,0.88656 0.713859,1.5999 1.600419,1.5999 h 6.15363 c 0.88656,0 1.600419,-0.71334 1.600419,-1.5999 v -0.75189 a 4.7351378,4.1992071 0 0 0 -2.126485,-2.89801 2.9394711,2.606777 0 0 0 0.352433,-0.89401 v -0.46663 c 0,-0.55036 -0.442863,-0.99323 -0.993222,-0.99323 z"
       id="path907"
       inkscape:connector-curvature="0" />
  </g>
</svg>
