<?xml version="1.0" encoding="UTF-8" standalone="no"?>
<!-- Created with Inkscape (http://www.inkscape.org/) -->

<svg
   xmlns:dc="http://purl.org/dc/elements/1.1/"
   xmlns:cc="http://creativecommons.org/ns#"
   xmlns:rdf="http://www.w3.org/1999/02/22-rdf-syntax-ns#"
   xmlns:svg="http://www.w3.org/2000/svg"
   xmlns="http://www.w3.org/2000/svg"
   xmlns:sodipodi="http://sodipodi.sourceforge.net/DTD/sodipodi-0.dtd"
   xmlns:inkscape="http://www.inkscape.org/namespaces/inkscape"
   width="96"
   height="96"
   viewBox="0 0 25.399999 25.400001"
   version="1.1"
   id="svg917"
   inkscape:export-filename="C:\Users\usrdotech\Documents\Proyectos\luger-cordova\res\icon\icon.png"
   inkscape:export-xdpi="96"
   inkscape:export-ydpi="96"
   sodipodi:docname="dibujo_unknow.svg"
   inkscape:version="0.92.4 (5da689c313, 2019-01-14)">
  <defs
     id="defs911" />
  <sodipodi:namedview
     id="base"
     pagecolor="#ffffff"
     bordercolor="#666666"
     borderopacity="1.0"
     inkscape:pageopacity="0.0"
     inkscape:pageshadow="2"
     inkscape:zoom="4"
     inkscape:cx="57.315998"
     inkscape:cy="57.080086"
     inkscape:document-units="mm"
     inkscape:current-layer="layer1"
     showgrid="false"
     units="px"
     inkscape:window-width="1366"
     inkscape:window-height="705"
     inkscape:window-x="-8"
     inkscape:window-y="-8"
     inkscape:window-maximized="1"
     inkscape:snap-global="false"
     showguides="false" />
  <metadata
     id="metadata914">
    <rdf:RDF>
      <cc:Work
         rdf:about="">
        <dc:format>image/svg+xml</dc:format>
        <dc:type
           rdf:resource="http://purl.org/dc/dcmitype/StillImage" />
        <dc:title />
      </cc:Work>
    </rdf:RDF>
  </metadata>
  <g
     inkscape:label="Capa 1"
     inkscape:groupmode="layer"
     id="layer1"
     transform="translate(0,-271.59998)">
    <circle
       cy="284.3291"
       cx="12.662139"
       id="circle5437-9-710-3-1-0-24"
       style="opacity:1;fill:#3682cc;fill-opacity:1;stroke:none;stroke-width:1.42419231;stroke-linecap:butt;stroke-linejoin:miter;stroke-miterlimit:4;stroke-dasharray:none;stroke-dashoffset:0;stroke-opacity:1"
       r="11.796283"
       inkscape:export-filename="C:\Users\usrdotech\Documents\Proyectos\luger-cordova\res\icon\circle5437-9-710-3-1-0-24.png"
       inkscape:export-xdpi="96"
       inkscape:export-ydpi="96" />
    <circle
       cx="7.8678374"
       cy="289.02759"
       r="2.3306296"
       id="circle832"
       style="opacity:1;fill:#07111a;fill-opacity:0.2745098;stroke:none;stroke-width:0.22883296;stroke-miterlimit:4;stroke-dasharray:none;stroke-opacity:1" />
    <circle
       style="fill:#cadef1;fill-opacity:1;stroke:none;stroke-width:0.22883296;stroke-miterlimit:4;stroke-dasharray:none;stroke-opacity:1"
       id="path815"
       r="2.3306296"
       cy="288.63071"
       cx="7.7355456" />
    <path
       style="opacity:1;fill:#000000;fill-opacity:0.27272728;stroke:none;stroke-width:0.14062573;stroke-miterlimit:4;stroke-dasharray:none;stroke-opacity:1"
       d="m 18.631421,277.62235 -0.0026,0.006 a 11.510986,11.510986 0 0 0 -8.825818,7.10654 l 0.958598,0.99787 -0.0083,0.01 -1.2738244,-0.0982 a 11.510986,11.510986 0 0 0 -0.4041097,1.94097 l -0.1359091,0.0108 5.167e-4,0.004 0.076998,0.0791 -1.6965371,1.89291 0.00568,0.004 1.2014771,0.0429 1.2107788,-1.35082 a 11.510986,11.510986 0 0 0 0.4227137,-0.12093 l 0.615983,-0.0486 a 7.9833961,7.9833961 0 0 0 3.632853,1.09554 l -0.05684,-0.0636 -0.118856,-1.16221 0.0031,-0.007 1.096574,1.22731 a 7.9833961,7.9833961 0 0 0 2.168859,-0.44906 l -0.383439,-1.39217 0.0015,-0.009 1.023711,1.13843 a 7.9833961,7.9833961 0 0 0 2.187463,-1.46192 7.9833961,7.9833961 0 0 0 -5.870959,-1.25884 l -1.244886,-1.06402 -0.0031,-0.0103 2.365747,0.18913 a 11.510986,11.510986 0 0 0 1.81591,-2.6262 l -1.785421,-1.07176 -0.0067,-0.0103 2.200899,0.16898 a 11.510986,11.510986 0 0 0 0.827857,-3.7083 z m 1.700671,9.39168 a 7.9833961,7.9833961 0 0 1 0.0016,0.001 l 0.0016,-0.004 a 7.9833961,7.9833961 0 0 1 -0.0031,0.003 z m -5.818249,-6.05441 -0.04134,0.59582 c -1.1715,1.24842 -1.896525,2.49664 -2.613278,3.745 l -0.269751,-0.14625 v -0.004 c 0.568637,-1.55366 1.825948,-2.93961 2.92437,-4.19095 z m 2.159041,5.75882 -0.305408,0.27853 c -1.185526,0.0658 -2.146932,0.34495 -3.104203,0.62839 l -0.06511,-0.20206 0.001,-10e-4 c 1.029063,-0.50758 2.323441,-0.60158 3.47369,-0.70383 z m -4.168221,0.50022 5.17e-4,0.0982 -0.0098,5.2e-4 -0.05736,-0.0636 a 11.510986,11.510986 0 0 0 0.06666,-0.0351 z"
       id="path825"
       inkscape:connector-curvature="0" />
    <path
       style="opacity:1;fill:#ffffff;fill-opacity:1;stroke:none;stroke-width:0.14062573;stroke-miterlimit:4;stroke-dasharray:none;stroke-opacity:1"
       d="m 18.364484,277.16487 a 11.510986,11.510986 0 0 0 -8.8259625,7.10652 l 0.9585235,0.9978 -0.0085,0.01 -1.2737693,-0.098 a 11.510986,11.510986 0 0 0 -0.4091275,1.9757 l -1.7497637,1.9519 0.0057,0.004 1.201534,0.0429 1.2109776,-1.35084 a 11.510986,11.510986 0 0 0 4.8808359,-2.47243 l -0.122766,-0.01 -1.280675,-1.09445 -0.0028,-0.01 2.365427,0.18921 a 11.510986,11.510986 0 0 0 1.816315,-2.62668 l -1.785439,-1.07167 -0.0071,-0.01 2.20126,0.16905 a 11.510986,11.510986 0 0 0 0.827427,-3.70869 z m -4.115333,3.33139 -0.0413,0.59596 c -1.171499,1.24842 -1.896612,2.49673 -2.613365,3.74509 l -0.269757,-0.14591 2.73e-4,-0.004 c 0.568637,-1.55366 1.825772,-2.93932 2.924194,-4.19066 z"
       id="path1058-72-5"
       inkscape:connector-curvature="0" />
    <path
       style="opacity:1;fill:#7cbfff;fill-opacity:1;stroke:none;stroke-width:0.09753039;stroke-miterlimit:4;stroke-dasharray:none;stroke-opacity:1"
       d="m 20.069137,286.55227 a 7.9833963,7.9833963 0 0 0 -7.831234,-0.658 l 0.0028,0.9596 -0.01,2.7e-4 -0.592421,-0.65882 a 7.9833963,7.9833963 0 0 0 -1.150943,0.79563 l -1.8124692,0.14213 6.813e-4,0.004 0.5824956,0.59665 1.2543713,-0.0983 a 7.9833963,7.9833963 0 0 0 3.633067,1.09539 l -0.05682,-0.0638 -0.118921,-1.16229 0.0028,-0.007 1.0966,1.2272 a 7.9833963,7.9833963 0 0 0 2.168888,-0.44889 l -0.383123,-1.39248 0.0012,-0.009 1.023867,1.13851 a 7.9833963,7.9833963 0 0 0 2.190478,-1.46528 z m -3.66003,-0.2978 -0.306031,0.27928 c -1.185526,0.0658 -2.14697,0.34524 -3.104241,0.62868 l -0.06551,-0.20235 0.0014,-0.001 c 1.029063,-0.50758 2.323255,-0.60128 3.473504,-0.70353 z"
       id="path1058-72-1"
       inkscape:connector-curvature="0" />
  </g>
</svg>
